<mxfile host="app.diagrams.net" modified="2023-12-24T22:47:13.717Z" agent="Mozilla/5.0 (Windows NT 10.0; Win64; x64) AppleWebKit/537.36 (KHTML, like Gecko) Chrome/119.0.0.0 Safari/537.36 OPR/105.0.0.0" etag="WeqIZ86FVGLuQP5OXXKy" version="22.1.11" type="device">
  <diagram name="Page-1" id="7Kjx3G71WdkJQHfTWMpJ">
    <mxGraphModel dx="1946" dy="677" grid="1" gridSize="10" guides="1" tooltips="1" connect="1" arrows="1" fold="1" page="1" pageScale="1" pageWidth="850" pageHeight="1100" math="0" shadow="0">
      <root>
        <mxCell id="0" />
        <mxCell id="1" parent="0" />
        <mxCell id="jT1ulUS5fwVi-JFsA4w6-1" value="" style="rounded=0;whiteSpace=wrap;html=1;" parent="1" vertex="1">
          <mxGeometry x="-640" y="30" width="480" height="570" as="geometry" />
        </mxCell>
        <mxCell id="jT1ulUS5fwVi-JFsA4w6-2" value="Staff" style="shape=umlActor;verticalLabelPosition=bottom;verticalAlign=top;html=1;outlineConnect=0;" parent="1" vertex="1">
          <mxGeometry x="-721" y="270" width="30" height="60" as="geometry" />
        </mxCell>
        <mxCell id="jT1ulUS5fwVi-JFsA4w6-3" value="Sell the ticket to the customer" style="ellipse;whiteSpace=wrap;html=1;" parent="1" vertex="1">
          <mxGeometry x="-631" y="90" width="100" height="49" as="geometry" />
        </mxCell>
        <mxCell id="jT1ulUS5fwVi-JFsA4w6-4" value="&lt;div&gt;Accept returned ticket&lt;/div&gt;" style="ellipse;whiteSpace=wrap;html=1;" parent="1" vertex="1">
          <mxGeometry x="-631" y="166.75" width="100" height="51" as="geometry" />
        </mxCell>
        <mxCell id="jT1ulUS5fwVi-JFsA4w6-5" value="See all taken and free seats" style="ellipse;whiteSpace=wrap;html=1;" parent="1" vertex="1">
          <mxGeometry x="-631" y="230" width="110" height="50" as="geometry" />
        </mxCell>
        <mxCell id="jT1ulUS5fwVi-JFsA4w6-6" value="Choose a seat" style="ellipse;whiteSpace=wrap;html=1;" parent="1" vertex="1">
          <mxGeometry x="-460.5" y="100" width="90" height="30" as="geometry" />
        </mxCell>
        <mxCell id="jT1ulUS5fwVi-JFsA4w6-7" value="Choose the cinema sessions" style="ellipse;whiteSpace=wrap;html=1;" parent="1" vertex="1">
          <mxGeometry x="-485" y="39" width="120" height="51" as="geometry" />
        </mxCell>
        <mxCell id="jT1ulUS5fwVi-JFsA4w6-8" value="" style="edgeStyle=orthogonalEdgeStyle;rounded=0;orthogonalLoop=1;jettySize=auto;html=1;" parent="1" source="jT1ulUS5fwVi-JFsA4w6-9" target="jT1ulUS5fwVi-JFsA4w6-5" edge="1">
          <mxGeometry relative="1" as="geometry" />
        </mxCell>
        <mxCell id="jT1ulUS5fwVi-JFsA4w6-9" value="Choose the cinema sessions" style="ellipse;whiteSpace=wrap;html=1;" parent="1" vertex="1">
          <mxGeometry x="-460.5" y="230" width="120" height="51" as="geometry" />
        </mxCell>
        <mxCell id="jT1ulUS5fwVi-JFsA4w6-10" value="Mark the customer once the customer takes a seat" style="ellipse;whiteSpace=wrap;html=1;" parent="1" vertex="1">
          <mxGeometry x="-631" y="299" width="130" height="70" as="geometry" />
        </mxCell>
        <mxCell id="jT1ulUS5fwVi-JFsA4w6-11" value="Edit film info" style="ellipse;whiteSpace=wrap;html=1;" parent="1" vertex="1">
          <mxGeometry x="-625.5" y="400" width="85" height="30" as="geometry" />
        </mxCell>
        <mxCell id="jT1ulUS5fwVi-JFsA4w6-12" value="Edit film name" style="ellipse;whiteSpace=wrap;html=1;" parent="1" vertex="1">
          <mxGeometry x="-481" y="359" width="90" height="30" as="geometry" />
        </mxCell>
        <mxCell id="jT1ulUS5fwVi-JFsA4w6-13" value="&amp;lt;&amp;lt;include&amp;gt;&amp;gt;" style="html=1;verticalAlign=bottom;labelBackgroundColor=none;endArrow=open;endFill=0;dashed=1;rounded=0;exitX=0;exitY=0.5;exitDx=0;exitDy=0;entryX=0.5;entryY=0;entryDx=0;entryDy=0;" parent="1" source="jT1ulUS5fwVi-JFsA4w6-7" target="jT1ulUS5fwVi-JFsA4w6-3" edge="1">
          <mxGeometry width="160" relative="1" as="geometry">
            <mxPoint x="-451" y="110" as="sourcePoint" />
            <mxPoint x="-291" y="110" as="targetPoint" />
          </mxGeometry>
        </mxCell>
        <mxCell id="jT1ulUS5fwVi-JFsA4w6-14" value="&amp;lt;&amp;lt;include&amp;gt;&amp;gt;" style="html=1;verticalAlign=bottom;labelBackgroundColor=none;endArrow=open;endFill=0;dashed=1;rounded=0;exitX=0;exitY=0.5;exitDx=0;exitDy=0;entryX=1;entryY=0.5;entryDx=0;entryDy=0;" parent="1" source="jT1ulUS5fwVi-JFsA4w6-6" target="jT1ulUS5fwVi-JFsA4w6-3" edge="1">
          <mxGeometry width="160" relative="1" as="geometry">
            <mxPoint x="-530" y="76" as="sourcePoint" />
            <mxPoint x="-571" y="100" as="targetPoint" />
          </mxGeometry>
        </mxCell>
        <mxCell id="jT1ulUS5fwVi-JFsA4w6-15" value="&amp;lt;&amp;lt;include&amp;gt;&amp;gt;" style="html=1;verticalAlign=bottom;labelBackgroundColor=none;endArrow=open;endFill=0;dashed=1;rounded=0;exitX=0;exitY=0.5;exitDx=0;exitDy=0;entryX=1;entryY=0.5;entryDx=0;entryDy=0;" parent="1" source="jT1ulUS5fwVi-JFsA4w6-9" target="jT1ulUS5fwVi-JFsA4w6-5" edge="1">
          <mxGeometry width="160" relative="1" as="geometry">
            <mxPoint x="-461" y="125" as="sourcePoint" />
            <mxPoint x="-521" y="125" as="targetPoint" />
          </mxGeometry>
        </mxCell>
        <mxCell id="jT1ulUS5fwVi-JFsA4w6-16" value="Edit list of the cinema sessions of this film" style="ellipse;whiteSpace=wrap;html=1;" parent="1" vertex="1">
          <mxGeometry x="-521" y="480" width="140" height="45.5" as="geometry" />
        </mxCell>
        <mxCell id="jT1ulUS5fwVi-JFsA4w6-17" value="Edit film description" style="ellipse;whiteSpace=wrap;html=1;" parent="1" vertex="1">
          <mxGeometry x="-441" y="389" width="119.5" height="30" as="geometry" />
        </mxCell>
        <mxCell id="jT1ulUS5fwVi-JFsA4w6-18" value="&amp;lt;&amp;lt;extend&amp;gt;&amp;gt;" style="html=1;verticalAlign=bottom;labelBackgroundColor=none;endArrow=open;endFill=0;dashed=1;rounded=0;exitX=0;exitY=0.5;exitDx=0;exitDy=0;entryX=1;entryY=0;entryDx=0;entryDy=0;" parent="1" source="jT1ulUS5fwVi-JFsA4w6-12" target="jT1ulUS5fwVi-JFsA4w6-11" edge="1">
          <mxGeometry width="160" relative="1" as="geometry">
            <mxPoint x="-321" y="330" as="sourcePoint" />
            <mxPoint x="-161" y="330" as="targetPoint" />
          </mxGeometry>
        </mxCell>
        <mxCell id="jT1ulUS5fwVi-JFsA4w6-19" value="&amp;lt;&amp;lt;extend&amp;gt;&amp;gt;" style="html=1;verticalAlign=bottom;labelBackgroundColor=none;endArrow=open;endFill=0;dashed=1;rounded=0;exitX=0;exitY=0.5;exitDx=0;exitDy=0;entryX=1;entryY=0.5;entryDx=0;entryDy=0;" parent="1" source="jT1ulUS5fwVi-JFsA4w6-17" target="jT1ulUS5fwVi-JFsA4w6-11" edge="1">
          <mxGeometry width="160" relative="1" as="geometry">
            <mxPoint x="-480" y="375" as="sourcePoint" />
            <mxPoint x="-530" y="425" as="targetPoint" />
          </mxGeometry>
        </mxCell>
        <mxCell id="jT1ulUS5fwVi-JFsA4w6-20" value="&amp;lt;&amp;lt;extend&amp;gt;&amp;gt;" style="html=1;verticalAlign=bottom;labelBackgroundColor=none;endArrow=open;endFill=0;dashed=1;rounded=0;exitX=0;exitY=0;exitDx=0;exitDy=0;entryX=1;entryY=1;entryDx=0;entryDy=0;" parent="1" source="jT1ulUS5fwVi-JFsA4w6-16" target="jT1ulUS5fwVi-JFsA4w6-11" edge="1">
          <mxGeometry width="160" relative="1" as="geometry">
            <mxPoint x="-471" y="415" as="sourcePoint" />
            <mxPoint x="-530" y="425" as="targetPoint" />
          </mxGeometry>
        </mxCell>
        <mxCell id="jT1ulUS5fwVi-JFsA4w6-21" value="" style="endArrow=none;html=1;rounded=0;entryX=0;entryY=0.5;entryDx=0;entryDy=0;exitX=1;exitY=0.3333333333333333;exitDx=0;exitDy=0;exitPerimeter=0;" parent="1" source="jT1ulUS5fwVi-JFsA4w6-2" target="jT1ulUS5fwVi-JFsA4w6-3" edge="1">
          <mxGeometry width="50" height="50" relative="1" as="geometry">
            <mxPoint x="-771" y="250" as="sourcePoint" />
            <mxPoint x="-721" y="200" as="targetPoint" />
          </mxGeometry>
        </mxCell>
        <mxCell id="jT1ulUS5fwVi-JFsA4w6-22" value="" style="endArrow=none;html=1;rounded=0;entryX=0;entryY=0.5;entryDx=0;entryDy=0;exitX=1;exitY=0.3333333333333333;exitDx=0;exitDy=0;exitPerimeter=0;" parent="1" source="jT1ulUS5fwVi-JFsA4w6-2" target="jT1ulUS5fwVi-JFsA4w6-4" edge="1">
          <mxGeometry width="50" height="50" relative="1" as="geometry">
            <mxPoint x="-801" y="240" as="sourcePoint" />
            <mxPoint x="-751" y="190" as="targetPoint" />
          </mxGeometry>
        </mxCell>
        <mxCell id="jT1ulUS5fwVi-JFsA4w6-23" value="" style="endArrow=none;html=1;rounded=0;entryX=0;entryY=0.5;entryDx=0;entryDy=0;exitX=1;exitY=0.3333333333333333;exitDx=0;exitDy=0;exitPerimeter=0;" parent="1" source="jT1ulUS5fwVi-JFsA4w6-2" target="jT1ulUS5fwVi-JFsA4w6-5" edge="1">
          <mxGeometry width="50" height="50" relative="1" as="geometry">
            <mxPoint x="-771" y="280" as="sourcePoint" />
            <mxPoint x="-721" y="230" as="targetPoint" />
          </mxGeometry>
        </mxCell>
        <mxCell id="jT1ulUS5fwVi-JFsA4w6-24" value="" style="endArrow=none;html=1;rounded=0;entryX=0;entryY=0.5;entryDx=0;entryDy=0;exitX=1;exitY=0.3333333333333333;exitDx=0;exitDy=0;exitPerimeter=0;" parent="1" source="jT1ulUS5fwVi-JFsA4w6-2" target="jT1ulUS5fwVi-JFsA4w6-10" edge="1">
          <mxGeometry width="50" height="50" relative="1" as="geometry">
            <mxPoint x="-751" y="310" as="sourcePoint" />
            <mxPoint x="-701" y="260" as="targetPoint" />
          </mxGeometry>
        </mxCell>
        <mxCell id="jT1ulUS5fwVi-JFsA4w6-25" value="" style="endArrow=none;html=1;rounded=0;entryX=0;entryY=0.5;entryDx=0;entryDy=0;exitX=1;exitY=0.3333333333333333;exitDx=0;exitDy=0;exitPerimeter=0;" parent="1" source="jT1ulUS5fwVi-JFsA4w6-2" target="jT1ulUS5fwVi-JFsA4w6-11" edge="1">
          <mxGeometry width="50" height="50" relative="1" as="geometry">
            <mxPoint x="-791" y="290" as="sourcePoint" />
            <mxPoint x="-741" y="240" as="targetPoint" />
          </mxGeometry>
        </mxCell>
        <mxCell id="jT1ulUS5fwVi-JFsA4w6-26" value="Add session with this film to the schedule" style="ellipse;whiteSpace=wrap;html=1;" parent="1" vertex="1">
          <mxGeometry x="-330" y="450" width="120" height="58" as="geometry" />
        </mxCell>
        <mxCell id="jT1ulUS5fwVi-JFsA4w6-27" value="Edit film duration" style="ellipse;whiteSpace=wrap;html=1;" parent="1" vertex="1">
          <mxGeometry x="-470.5" y="430" width="110" height="40" as="geometry" />
        </mxCell>
        <mxCell id="jT1ulUS5fwVi-JFsA4w6-28" value="&amp;lt;&amp;lt;extend&amp;gt;&amp;gt;" style="html=1;verticalAlign=bottom;labelBackgroundColor=none;endArrow=open;endFill=0;dashed=1;rounded=0;exitX=0;exitY=0.5;exitDx=0;exitDy=0;entryX=1;entryY=0.5;entryDx=0;entryDy=0;" parent="1" source="jT1ulUS5fwVi-JFsA4w6-27" target="jT1ulUS5fwVi-JFsA4w6-11" edge="1">
          <mxGeometry width="160" relative="1" as="geometry">
            <mxPoint x="-450" y="425" as="sourcePoint" />
            <mxPoint x="-530" y="425" as="targetPoint" />
          </mxGeometry>
        </mxCell>
        <mxCell id="jT1ulUS5fwVi-JFsA4w6-29" value="Remove session with this film from the schedule" style="ellipse;whiteSpace=wrap;html=1;" parent="1" vertex="1">
          <mxGeometry x="-340.5" y="516" width="150" height="68" as="geometry" />
        </mxCell>
        <mxCell id="jT1ulUS5fwVi-JFsA4w6-30" value="&amp;lt;&amp;lt;include&amp;gt;&amp;gt;" style="html=1;verticalAlign=bottom;labelBackgroundColor=none;endArrow=open;endFill=0;dashed=1;rounded=0;exitX=0;exitY=0.5;exitDx=0;exitDy=0;entryX=1;entryY=0.5;entryDx=0;entryDy=0;" parent="1" source="jT1ulUS5fwVi-JFsA4w6-26" target="jT1ulUS5fwVi-JFsA4w6-16" edge="1">
          <mxGeometry width="160" relative="1" as="geometry">
            <mxPoint x="-450" y="266" as="sourcePoint" />
            <mxPoint x="-511" y="265" as="targetPoint" />
          </mxGeometry>
        </mxCell>
        <mxCell id="jT1ulUS5fwVi-JFsA4w6-31" value="&amp;lt;&amp;lt;include&amp;gt;&amp;gt;" style="html=1;verticalAlign=bottom;labelBackgroundColor=none;endArrow=open;endFill=0;dashed=1;rounded=0;exitX=0;exitY=0.5;exitDx=0;exitDy=0;entryX=1;entryY=1;entryDx=0;entryDy=0;" parent="1" source="jT1ulUS5fwVi-JFsA4w6-29" target="jT1ulUS5fwVi-JFsA4w6-16" edge="1">
          <mxGeometry width="160" relative="1" as="geometry">
            <mxPoint x="-311" y="499" as="sourcePoint" />
            <mxPoint x="-371" y="513" as="targetPoint" />
          </mxGeometry>
        </mxCell>
      </root>
    </mxGraphModel>
  </diagram>
</mxfile>
